<svg xmlns="http://www.w3.org/2000/svg" viewBox="0 0 143.67 84.72"><defs><style>.a{fill:#fff;}</style></defs><rect class="a" x="45.41" y="4.47" width="4.47" height="4.47" rx="1.03"/><path class="a" d="M76.68,97.74V91.28a1,1,0,0,1,1-1h2.4a1,1,0,0,0,1-1V82.35a1,1,0,0,1,1-1h2.4a1,1,0,0,0,1-1v-2.4a1,1,0,0,1,1-1H89a1,1,0,0,0,1-1v-2.4a1,1,0,0,1,1-1h2.4a1,1,0,0,0,1-1V69a1,1,0,0,1,1-1H98a1,1,0,0,1,1,1v2.4a1,1,0,0,0,1,1h6.87a1,1,0,0,1,1,1v2.41a1,1,0,0,0,1,1h6.87a1,1,0,0,1,1,1v2.39a1,1,0,0,0,1,1h6.87a1,1,0,0,0,1-1v-2.4a1,1,0,0,1,1-1h2.4a1,1,0,0,0,1-1v-2.4a1,1,0,0,0-1-1h-2.41a1,1,0,0,1-1-1V64.48a1,1,0,0,0-1-1h-6.87a1,1,0,0,1-1-1V60a1,1,0,0,0-1-1h-2.41a1,1,0,0,1-1-1v-2.4a1,1,0,0,1,1-1h2.4a1,1,0,0,1,1,1V58a1,1,0,0,0,1,1h2.4a1,1,0,0,0,1-1v-2.4a1,1,0,0,1,1-1h2.4a1,1,0,0,1,1,1V58a1,1,0,0,0,1,1h2.4a1,1,0,0,1,1,1v6.87a1,1,0,0,0,1,1h2.4a1,1,0,0,0,1-1V64.48a1,1,0,0,1,1-1h2.41a1,1,0,0,0,1-1V60a1,1,0,0,1,1-1h2.4a1,1,0,0,0,1-1V46.62a1,1,0,0,0-1-1h-2.39a1,1,0,0,1-1-1v-2.4a1,1,0,0,0-1-1H126.84a1,1,0,0,1-1-1V33.22a1,1,0,0,0-1-1h-2.39a1,1,0,0,1-1-1v-2.4a1,1,0,0,0-1-1h-6.87a1,1,0,0,1-1-1V24.28a1,1,0,0,0-1-1H95.58a1,1,0,0,0-1,1v2.39a1,1,0,0,1-1,1H82.18a1,1,0,0,0-1,1v2.39a1,1,0,0,1-1,1H73.24a1,1,0,0,1-1-1V24.28a1,1,0,0,0-1-1h-2.4a1,1,0,0,1-1-1V19.82a1,1,0,0,0-1-1H64.31a1,1,0,0,0-1,1v6.87a1,1,0,0,1-1,1H50.91a1,1,0,0,0-1,1V40.08a1,1,0,0,1-1,1H42a1,1,0,0,0-1,1v2.4a1,1,0,0,1-1,1H37.51a1,1,0,0,1-1-1V33.22a1,1,0,0,0-1-1H33.05a1,1,0,0,1-1-1V28.75a1,1,0,0,0-1-1h-2.4a1,1,0,0,1-1-1V24.28a1,1,0,0,0-1-1H24.11a1,1,0,0,0-1,1V44.55a1,1,0,0,1-1,1H19.64a1,1,0,0,1-1-1v-2.4a1,1,0,0,0-1-1h-2.4a1,1,0,0,1-1-1V24.28a1,1,0,0,0-1-1h-2.4a1,1,0,0,0-1,1v2.4a1,1,0,0,1-1,1H6.25a1,1,0,0,0-1,1v6.86a1,1,0,0,1-1,1H1.78a1,1,0,0,0-1,1v6.41H0V97.74a5.76,5.76,0,0,0,5.75,5.76H70.93A5.76,5.76,0,0,0,76.68,97.74Zm44.66-53.19a1,1,0,0,1-1,1h-2.4a1,1,0,0,1-1-1v-2.4a1,1,0,0,1,1-1h2.4a1,1,0,0,1,1,1Z" transform="translate(0 -18.78)"/><rect class="a" x="125.81" y="8.94" width="4.47" height="4.47" rx="0.69"/></svg>